<svg version="1.0" xmlns="http://www.w3.org/2000/svg" width="682.667" height="682.667" viewBox="0 0 512 512"><path d="M249.5 22.2c-3.5.9-12.8 9.8-71.3 68.2-37.5 37.4-68.2 68.7-69.3 70.8-2.1 4-2.6 12.9-1 17.1 1.6 4 7.3 9.9 11.6 11.8 5.1 2.4 11.9 2.4 17 0 2.7-1.3 19.4-17.4 50.5-48.5C212.6 116 233.8 95 234.2 95c.5 0 .8 85.3.8 189.5 0 168.8.2 190 1.5 193.3 6.4 15.2 27.3 17.2 37 3.4l3-4.4.3-190.9c.1-105 .6-190.9 1-190.9s21.6 21 47.2 46.6c31.1 31.1 47.8 47.2 50.5 48.5 17.4 8.1 35.8-11 27.6-28.6-1.3-2.7-23.2-25.3-69.2-71.1-63.5-63.2-67.7-67.2-72.1-68.3-5.4-1.3-6.8-1.3-12.3.1z"/></svg>
